<svg width="64" height="64" viewBox="0 0 64 64" fill="none" xmlns="http://www.w3.org/2000/svg">
<rect width="64" height="64" rx="32" fill="#3284FF"/>
<path fill-rule="evenodd" clip-rule="evenodd" d="M45.6813 18.997C43.8621 17.0653 41.4463 16 38.875 16C36.3037 16 33.8879 17.0653 32.0701 18.9956C32.0467 19.0204 32.0234 19.0453 32 19.0716C31.9766 19.0453 31.9546 19.0219 31.9312 18.997C30.1121 17.0653 27.6962 16 25.125 16C22.5538 16 20.1379 17.0653 18.3187 18.997C16.4996 20.9288 15.5 23.4962 15.5 26.2288C15.5 28.9613 16.501 31.5287 18.3187 33.4605L32 48L45.6813 33.4605C47.499 31.5287 48.5 28.9613 48.5 26.2288C48.5 23.4977 47.499 20.9288 45.6813 18.997Z" fill="white"/>
</svg>
