<svg width="77" height="16" viewBox="0 0 77 16" fill="none" xmlns="http://www.w3.org/2000/svg">
<path d="M1.28 2.34399C1.28 3.07999 1.872 3.65599 2.608 3.65599H10.848L10.768 4.77599C10.704 5.67199 11.344 6.42399 12.24 6.48799C13.12 6.55199 13.888 5.91199 13.952 5.01599L14.16 2.34399C14.224 1.60799 13.552 0.999992 12.816 0.999992H2.608C1.872 0.999992 1.28 1.60799 1.28 2.34399ZM0.880005 8.23199C0.880005 8.96799 1.472 9.54399 2.208 9.54399H6.16001V10.36C6.16001 10.488 6.176 10.616 6.19201 10.728L1.728 13.064C1.04 13.432 0.832005 14.408 1.296 15.096C1.76 15.784 2.528 15.88 3.216 15.544L7.76 13.272L12.336 15.544C13.04 15.88 13.856 15.768 14.272 15.064C14.688 14.36 14.544 13.448 13.824 13.064L9.31201 10.728C9.34401 10.616 9.36001 10.488 9.36001 10.36V9.54399H13.296C14.032 9.54399 14.64 8.96799 14.64 8.23199C14.64 7.49599 14.032 6.88799 13.296 6.88799H2.208C1.472 6.88799 0.880005 7.49599 0.880005 8.23199Z" fill="#3284FF"/>
<path d="M25.9156 2.27999V6.59999C25.9156 7.49599 26.6196 8.19999 27.5156 8.19999C28.3956 8.19999 29.1156 7.49599 29.1156 6.59999V5.75199H29.3396C30.0916 5.75199 30.7156 5.14399 30.7156 4.39199C30.7156 3.63999 30.0916 3.01599 29.3396 3.01599H29.1156V2.27999C29.1156 1.39999 28.3956 0.679993 27.5156 0.679993C26.6196 0.679993 25.9156 1.39999 25.9156 2.27999ZM17.0836 3.44799L16.1236 6.02399C15.8836 6.77599 16.4116 7.73599 17.2276 7.97599C18.1076 8.23199 18.9716 7.71999 19.2596 6.93599L19.4996 6.27999H21.3076L21.5636 6.93599C21.8196 7.73599 22.7156 8.23199 23.5956 7.97599C24.4116 7.73599 24.9396 6.77599 24.6996 6.02399L24.1876 4.71199C24.0116 4.23199 23.4996 3.86399 22.8916 3.86399H20.4116L20.5556 3.44799H23.7396C24.4436 3.44799 25.0196 2.87199 25.0196 2.16799C25.0196 1.46399 24.4436 0.871993 23.7396 0.871993H17.1636C16.4596 0.871993 15.8836 1.46399 15.8836 2.16799C15.8836 2.85599 16.4116 3.41599 17.0836 3.44799ZM16.5556 10.088V14.52C16.5556 15.224 17.1476 15.816 17.8516 15.816H27.8356C28.5396 15.816 29.1316 15.224 29.1316 14.52V10.088C29.1316 9.20799 28.4116 8.48799 27.5316 8.48799C26.6356 8.48799 25.9316 9.20799 25.9316 10.088V10.248H19.7556V10.088C19.7556 9.20799 19.0356 8.48799 18.1556 8.48799C17.2596 8.48799 16.5556 9.20799 16.5556 10.088ZM25.9316 13.48H19.7556V12.584H25.9316V13.48Z" fill="#3284FF"/>
<path d="M39.1913 2.03999V6.83999C39.1913 7.60799 39.7993 8.19999 40.5513 8.19999C41.3033 8.19999 41.9113 7.60799 41.9113 6.83999V5.71999H42.7113V6.83999C42.7113 7.60799 43.3193 8.19999 44.0713 8.19999C44.8233 8.19999 45.4313 7.60799 45.4313 6.83999V2.03999C45.4313 1.28799 44.8233 0.679993 44.0713 0.679993C43.3193 0.679993 42.7113 1.28799 42.7113 2.03999V3.12799H41.9113V2.03999C41.9113 1.28799 41.3033 0.679993 40.5513 0.679993C39.7993 0.679993 39.1913 1.28799 39.1913 2.03999ZM31.4793 2.15199C31.4793 2.79199 31.9913 3.30399 32.6153 3.30399H34.6473L34.3753 3.76799H32.6313C32.0073 3.76799 31.4953 4.29599 31.4953 4.91999C31.4953 5.55999 32.0073 6.07199 32.6313 6.07199H33.0633C32.8873 6.72799 33.2553 7.47999 33.7833 7.71999C34.4233 8.03999 35.2553 7.86399 35.7033 7.15999L38.3113 2.83999C38.4553 2.64799 38.5353 2.40799 38.5353 2.15199C38.5353 1.52799 38.0073 0.999992 37.3833 0.999992H32.6153C31.9913 0.999992 31.4793 1.52799 31.4793 2.15199ZM45.4313 12.152V9.60799C45.4313 8.99999 44.9513 8.51999 44.3433 8.51999H33.1433C32.5353 8.51999 32.0713 8.99999 32.0713 9.60799C32.0713 10.184 32.5353 10.68 33.1433 10.68H42.2313V11.08H33.1593C32.5513 11.08 32.0713 11.576 32.0713 12.168V14.712C32.0713 15.32 32.5513 15.8 33.1593 15.8H44.5033C45.1113 15.8 45.5753 15.32 45.5753 14.712C45.5753 14.136 45.1113 13.64 44.5033 13.64H35.2713V13.24H44.3433C44.9513 13.24 45.4313 12.744 45.4313 12.152Z" fill="#3284FF"/>
<path d="M57.5869 2.27999V9.12799C57.5869 10.024 58.2909 10.728 59.1869 10.728C60.0669 10.728 60.7869 10.024 60.7869 9.12799V2.27999C60.7869 1.39999 60.0669 0.679993 59.1869 0.679993C58.2909 0.679993 57.5869 1.39999 57.5869 2.27999ZM47.6669 5.11199V8.11999C47.6669 8.82399 48.2429 9.36799 48.9469 9.36799H54.8349C55.5549 9.36799 56.1309 8.82399 56.1309 8.11999C56.1309 7.39999 55.5549 6.85599 54.8349 6.85599H50.8029V6.35999H54.6749C55.3949 6.35999 55.9709 5.81599 55.9709 5.11199V2.10399C55.9709 1.38399 55.3949 0.839993 54.6749 0.839993H48.9469C48.2429 0.839993 47.6669 1.38399 47.6669 2.10399C47.6669 2.80799 48.2429 3.35199 48.9469 3.35199H52.8349V3.84799H48.9469C48.2429 3.84799 47.6669 4.39199 47.6669 5.11199ZM48.0669 11.464V14.344C48.0669 15.096 48.6909 15.72 49.4429 15.72H59.7309C60.4829 15.72 61.0909 15.096 61.0909 14.344C61.0909 13.592 60.4829 12.984 59.7309 12.984H51.2669V11.464C51.2669 10.584 50.5469 9.86399 49.6669 9.86399C48.7709 9.86399 48.0669 10.584 48.0669 11.464Z" fill="#3284FF"/>
<path d="M70.7665 8.00799C70.7665 8.87199 71.4865 9.59199 72.3505 9.59199H73.1025V14.36C73.1025 15.256 73.8065 15.96 74.7025 15.96C75.5825 15.96 76.3025 15.256 76.3025 14.36V2.27999C76.3025 1.39999 75.5825 0.679993 74.7025 0.679993C73.8065 0.679993 73.1025 1.39999 73.1025 2.27999V6.42399H72.3505C71.4865 6.42399 70.7665 7.14399 70.7665 8.00799ZM63.1825 2.53599V13.88C63.1825 14.68 63.8225 15.32 64.6225 15.32H70.1745C70.9745 15.32 71.6305 14.68 71.6305 13.88C71.6305 13.08 70.9745 12.424 70.1745 12.424H66.3825V3.97599H70.0305C70.8305 3.97599 71.4865 3.33599 71.4865 2.53599C71.4865 1.73599 70.8305 1.07999 70.0305 1.07999H64.6225C63.8225 1.07999 63.1825 1.73599 63.1825 2.53599Z" fill="#3284FF"/>
</svg>
