<svg width="180" height="38" viewBox="0 0 180 38" fill="none" xmlns="http://www.w3.org/2000/svg">
<path d="M1.41594 4.69199C1.41594 6.43999 2.82194 7.80799 4.56994 7.80799H24.1399L23.9499 10.468C23.7979 12.596 25.3179 14.382 27.4459 14.534C29.5359 14.686 31.3599 13.166 31.5119 11.038L32.0059 4.69199C32.1579 2.94399 30.5619 1.49999 28.8139 1.49999H4.56994C2.82194 1.49999 1.41594 2.94399 1.41594 4.69199ZM0.465942 18.676C0.465942 20.424 1.87194 21.792 3.61994 21.792H13.0059V23.73C13.0059 24.034 13.0439 24.338 13.0819 24.604L2.47994 30.152C0.845942 31.026 0.351942 33.344 1.45394 34.978C2.55594 36.612 4.37994 36.84 6.01394 36.042L16.8059 30.646L27.6739 36.042C29.3459 36.84 31.2839 36.574 32.2719 34.902C33.2599 33.23 32.9179 31.064 31.2079 30.152L20.4919 24.604C20.5679 24.338 20.6059 24.034 20.6059 23.73V21.792H29.9539C31.7019 21.792 33.1459 20.424 33.1459 18.676C33.1459 16.928 31.7019 15.484 29.9539 15.484H3.61994C1.87194 15.484 0.465942 16.928 0.465942 18.676Z" fill="white"/>
<path d="M59.9256 4.53999V14.8C59.9256 16.928 61.5975 18.6 63.7256 18.6C65.8156 18.6 67.5256 16.928 67.5256 14.8V12.786H68.0576C69.8436 12.786 71.3255 11.342 71.3255 9.55599C71.3255 7.76999 69.8436 6.28799 68.0576 6.28799H67.5256V4.53999C67.5256 2.44999 65.8156 0.73999 63.7256 0.73999C61.5975 0.73999 59.9256 2.44999 59.9256 4.53999ZM38.9496 7.31399L36.6696 13.432C36.0996 15.218 37.3536 17.498 39.2916 18.068C41.3816 18.676 43.4336 17.46 44.1176 15.598L44.6876 14.04H48.9816L49.5896 15.598C50.1976 17.498 52.3256 18.676 54.4156 18.068C56.3536 17.498 57.6076 15.218 57.0376 13.432L55.8216 10.316C55.4035 9.17599 54.1876 8.30199 52.7436 8.30199H46.8536L47.1956 7.31399H54.7576C56.4296 7.31399 57.7976 5.94599 57.7976 4.27399C57.7976 2.60199 56.4296 1.19599 54.7576 1.19599H39.1396C37.4676 1.19599 36.0996 2.60199 36.0996 4.27399C36.0996 5.90799 37.3535 7.23799 38.9496 7.31399ZM37.6956 23.084V33.61C37.6956 35.282 39.1016 36.688 40.7736 36.688H64.4855C66.1575 36.688 67.5636 35.282 67.5636 33.61V23.084C67.5636 20.994 65.8536 19.284 63.7636 19.284C61.6356 19.284 59.9636 20.994 59.9636 23.084V23.464H45.2956V23.084C45.2956 20.994 43.5856 19.284 41.4956 19.284C39.3676 19.284 37.6956 20.994 37.6956 23.084ZM59.9636 31.14H45.2956V29.012H59.9636V31.14Z" fill="white"/>
<path d="M91.4552 3.96999V15.37C91.4552 17.194 92.8992 18.6 94.6852 18.6C96.4712 18.6 97.9152 17.194 97.9152 15.37V12.71H99.8152V15.37C99.8152 17.194 101.259 18.6 103.045 18.6C104.831 18.6 106.275 17.194 106.275 15.37V3.96999C106.275 2.18399 104.831 0.73999 103.045 0.73999C101.259 0.73999 99.8152 2.18399 99.8152 3.96999V6.55399H97.9152V3.96999C97.9152 2.18399 96.4712 0.73999 94.6852 0.73999C92.8992 0.73999 91.4552 2.18399 91.4552 3.96999ZM73.1392 4.23599C73.1392 5.75599 74.3552 6.97199 75.8372 6.97199H80.6632L80.0172 8.07399H75.8752C74.3932 8.07399 73.1772 9.32799 73.1772 10.81C73.1772 12.33 74.3932 13.546 75.8752 13.546H76.9012C76.4832 15.104 77.3572 16.89 78.6112 17.46C80.1312 18.22 82.1072 17.802 83.1712 16.13L89.3652 5.86999C89.7072 5.41399 89.8972 4.84399 89.8972 4.23599C89.8972 2.75399 88.6432 1.49999 87.1612 1.49999H75.8372C74.3552 1.49999 73.1392 2.75399 73.1392 4.23599ZM106.275 27.986V21.944C106.275 20.5 105.135 19.36 103.691 19.36H77.0912C75.6472 19.36 74.5452 20.5 74.5452 21.944C74.5452 23.312 75.6472 24.49 77.0912 24.49H98.6752V25.44H77.1292C75.6852 25.44 74.5452 26.618 74.5452 28.024V34.066C74.5452 35.51 75.6852 36.65 77.1292 36.65H104.071C105.515 36.65 106.617 35.51 106.617 34.066C106.617 32.698 105.515 31.52 104.071 31.52H82.1452V30.57H103.691C105.135 30.57 106.275 29.392 106.275 27.986Z" fill="white"/>
<path d="M135.145 4.53999V20.804C135.145 22.932 136.817 24.604 138.945 24.604C141.035 24.604 142.745 22.932 142.745 20.804V4.53999C142.745 2.44999 141.035 0.73999 138.945 0.73999C136.817 0.73999 135.145 2.44999 135.145 4.53999ZM111.585 11.266V18.41C111.585 20.082 112.953 21.374 114.625 21.374H128.609C130.319 21.374 131.687 20.082 131.687 18.41C131.687 16.7 130.319 15.408 128.609 15.408H119.033V14.23H128.229C129.939 14.23 131.307 12.938 131.307 11.266V4.12199C131.307 2.41199 129.939 1.11999 128.229 1.11999H114.625C112.953 1.11999 111.585 2.41199 111.585 4.12199C111.585 5.79399 112.953 7.08599 114.625 7.08599H123.859V8.26399H114.625C112.953 8.26399 111.585 9.55599 111.585 11.266ZM112.535 26.352V33.192C112.535 34.978 114.017 36.46 115.803 36.46H140.237C142.023 36.46 143.467 34.978 143.467 33.192C143.467 31.406 142.023 29.962 140.237 29.962H120.135V26.352C120.135 24.262 118.425 22.552 116.335 22.552C114.207 22.552 112.535 24.262 112.535 26.352Z" fill="white"/>
<path d="M166.446 18.144C166.446 20.196 168.156 21.906 170.208 21.906H171.994V33.23C171.994 35.358 173.666 37.03 175.794 37.03C177.884 37.03 179.594 35.358 179.594 33.23V4.53999C179.594 2.44999 177.884 0.73999 175.794 0.73999C173.666 0.73999 171.994 2.44999 171.994 4.53999V14.382H170.208C168.156 14.382 166.446 16.092 166.446 18.144ZM148.434 5.14799V32.09C148.434 33.99 149.954 35.51 151.854 35.51H165.04C166.94 35.51 168.498 33.99 168.498 32.09C168.498 30.19 166.94 28.632 165.04 28.632H156.034V8.56799H164.698C166.598 8.56799 168.156 7.04799 168.156 5.14799C168.156 3.24799 166.598 1.68999 164.698 1.68999H151.854C149.954 1.68999 148.434 3.24799 148.434 5.14799Z" fill="white"/>
</svg>
