<svg width="45" height="44" viewBox="0 0 45 44" fill="none" xmlns="http://www.w3.org/2000/svg">
<path d="M20.2213 21.1904C20.2213 21.1904 22.5009 21.0225 22.5009 18.3692C22.5009 15.716 20.6359 14.4209 18.2734 14.4209H10.5V29.2484H18.2734C18.2734 29.2484 23.0185 29.3972 23.0185 24.872C23.0185 24.872 23.2253 21.1904 20.2213 21.1904ZM13.9252 17.0559H18.2734C18.2734 17.0559 19.3302 17.0559 19.3302 18.5987C19.3302 20.1414 18.7088 20.365 18.0037 20.365H13.9252V17.0559ZM18.0732 26.6126H13.9252V22.6501H18.2734C18.2734 22.6501 19.8486 22.6293 19.8486 24.6866C19.8486 26.4014 18.6971 26.5959 18.0732 26.6126Z" fill="white"/>
<path d="M29.2906 18.1973C23.5803 18.1973 23.5861 23.9005 23.5861 23.9005C23.5861 23.9005 23.1941 29.5747 29.2914 29.5747C29.2914 29.5747 34.3723 29.8651 34.3723 25.6271H31.7594C31.7594 25.6271 31.8468 27.2231 29.3788 27.2231C29.3788 27.2231 26.7659 27.3979 26.7659 24.6403H34.4597C34.4597 24.6403 35.3013 18.1973 29.2914 18.1973H29.2906ZM31.6129 22.659H26.7351C26.7351 22.659 27.0547 20.3707 29.348 20.3707C31.6412 20.3707 31.6121 22.659 31.6121 22.659H31.6129Z" fill="white"/>
<path d="M32.2213 15.2954H26.0957V17.1235H32.2213V15.2954Z" fill="white"/>
</svg>
