<svg width="21" height="21" viewBox="0 0 21 21" fill="none" xmlns="http://www.w3.org/2000/svg">
<path d="M14.6562 3.115V1.75C14.6562 1.39125 14.3587 1.09375 14 1.09375C13.6412 1.09375 13.3437 1.39125 13.3437 1.75V3.0625H7.65621V1.75C7.65621 1.39125 7.35871 1.09375 6.99996 1.09375C6.64121 1.09375 6.34371 1.39125 6.34371 1.75V3.115C3.98121 3.33375 2.83496 4.7425 2.65996 6.83375C2.64246 7.0875 2.85246 7.2975 3.09746 7.2975H17.9025C18.1562 7.2975 18.3662 7.07875 18.34 6.83375C18.165 4.7425 17.0187 3.33375 14.6562 3.115Z" fill="#5BFAD3"/>
<path d="M17.5 8.61011H3.5C3.01875 8.61011 2.625 9.00386 2.625 9.48511V14.8751C2.625 17.5001 3.9375 19.2501 7 19.2501H14C17.0625 19.2501 18.375 17.5001 18.375 14.8751V9.48511C18.375 9.00386 17.9812 8.61011 17.5 8.61011ZM8.05875 15.9339C8.015 15.9689 7.97125 16.0126 7.9275 16.0389C7.875 16.0739 7.8225 16.1001 7.77 16.1176C7.7175 16.1439 7.665 16.1614 7.6125 16.1701C7.55125 16.1789 7.49875 16.1876 7.4375 16.1876C7.32375 16.1876 7.21 16.1614 7.105 16.1176C6.99125 16.0739 6.90375 16.0126 6.81625 15.9339C6.65875 15.7676 6.5625 15.5401 6.5625 15.3126C6.5625 15.0851 6.65875 14.8576 6.81625 14.6914C6.90375 14.6126 6.99125 14.5514 7.105 14.5076C7.2625 14.4376 7.4375 14.4201 7.6125 14.4551C7.665 14.4639 7.7175 14.4814 7.77 14.5076C7.8225 14.5251 7.875 14.5514 7.9275 14.5864C7.97125 14.6214 8.015 14.6564 8.05875 14.6914C8.21625 14.8576 8.3125 15.0851 8.3125 15.3126C8.3125 15.5401 8.21625 15.7676 8.05875 15.9339ZM8.05875 12.8714C7.8925 13.0289 7.665 13.1251 7.4375 13.1251C7.21 13.1251 6.9825 13.0289 6.81625 12.8714C6.65875 12.7051 6.5625 12.4776 6.5625 12.2501C6.5625 12.0226 6.65875 11.7951 6.81625 11.6289C7.06125 11.3839 7.44625 11.3051 7.77 11.4451C7.88375 11.4889 7.98 11.5501 8.05875 11.6289C8.21625 11.7951 8.3125 12.0226 8.3125 12.2501C8.3125 12.4776 8.21625 12.7051 8.05875 12.8714ZM11.1213 15.9339C10.955 16.0914 10.7275 16.1876 10.5 16.1876C10.2725 16.1876 10.045 16.0914 9.87875 15.9339C9.72125 15.7676 9.625 15.5401 9.625 15.3126C9.625 15.0851 9.72125 14.8576 9.87875 14.6914C10.2025 14.3676 10.7975 14.3676 11.1213 14.6914C11.2788 14.8576 11.375 15.0851 11.375 15.3126C11.375 15.5401 11.2788 15.7676 11.1213 15.9339ZM11.1213 12.8714C11.0775 12.9064 11.0338 12.9414 10.99 12.9764C10.9375 13.0114 10.885 13.0376 10.8325 13.0551C10.78 13.0814 10.7275 13.0989 10.675 13.1076C10.6137 13.1164 10.5613 13.1251 10.5 13.1251C10.2725 13.1251 10.045 13.0289 9.87875 12.8714C9.72125 12.7051 9.625 12.4776 9.625 12.2501C9.625 12.0226 9.72125 11.7951 9.87875 11.6289C9.9575 11.5501 10.0538 11.4889 10.1675 11.4451C10.4913 11.3051 10.8763 11.3839 11.1213 11.6289C11.2788 11.7951 11.375 12.0226 11.375 12.2501C11.375 12.4776 11.2788 12.7051 11.1213 12.8714ZM14.1837 15.9339C14.0175 16.0914 13.79 16.1876 13.5625 16.1876C13.335 16.1876 13.1075 16.0914 12.9412 15.9339C12.7837 15.7676 12.6875 15.5401 12.6875 15.3126C12.6875 15.0851 12.7837 14.8576 12.9412 14.6914C13.265 14.3676 13.86 14.3676 14.1837 14.6914C14.3412 14.8576 14.4375 15.0851 14.4375 15.3126C14.4375 15.5401 14.3412 15.7676 14.1837 15.9339ZM14.1837 12.8714C14.14 12.9064 14.0962 12.9414 14.0525 12.9764C14 13.0114 13.9475 13.0376 13.895 13.0551C13.8425 13.0814 13.79 13.0989 13.7375 13.1076C13.6762 13.1164 13.615 13.1251 13.5625 13.1251C13.335 13.1251 13.1075 13.0289 12.9412 12.8714C12.7837 12.7051 12.6875 12.4776 12.6875 12.2501C12.6875 12.0226 12.7837 11.7951 12.9412 11.6289C13.0288 11.5501 13.1163 11.4889 13.23 11.4451C13.3875 11.3751 13.5625 11.3576 13.7375 11.3926C13.79 11.4014 13.8425 11.4189 13.895 11.4451C13.9475 11.4626 14 11.4889 14.0525 11.5239C14.0962 11.5589 14.14 11.5939 14.1837 11.6289C14.3412 11.7951 14.4375 12.0226 14.4375 12.2501C14.4375 12.4776 14.3412 12.7051 14.1837 12.8714Z" fill="#5BFAD3"/>
</svg>
