<svg width="45" height="44" viewBox="0 0 45 44" fill="none" xmlns="http://www.w3.org/2000/svg">
<g clip-path="url(#clip0_1639_7300)">
<path d="M22.3055 10C15.783 10 10.5 15.2852 10.5 21.8104C10.5 27.0267 13.8843 31.4556 18.5769 33.0205C19.1672 33.1288 19.3541 32.7646 19.3541 32.4497V30.2549C16.0683 30.9734 15.3895 28.8573 15.3895 28.8573C14.8484 27.4893 14.081 27.1251 14.081 27.1251C13.0087 26.387 14.1597 26.4067 14.1597 26.4067C15.3403 26.4854 15.9699 27.6271 15.9699 27.6271C17.0226 29.4282 18.7344 28.9066 19.4033 28.6113C19.5116 27.8535 19.8165 27.322 20.151 27.0366C17.5341 26.7315 14.7697 25.7276 14.7697 21.2002C14.7697 19.9109 15.232 18.8578 15.9896 18.0311C15.8715 17.7358 15.4682 16.5351 16.1076 14.9013C16.1076 14.9013 17.1013 14.5864 19.3541 16.1119C20.2986 15.8462 21.3021 15.7182 22.3055 15.7182C23.309 15.7182 24.3223 15.856 25.2667 16.1119C27.5196 14.5864 28.5133 14.9013 28.5133 14.9013C29.1527 16.5253 28.7494 17.726 28.6313 18.0311C29.3888 18.8578 29.8512 19.9109 29.8512 21.2002C29.8512 25.7374 27.0868 26.7315 24.46 27.0267C24.8831 27.3909 25.2667 28.1093 25.2667 29.2117V32.4497C25.2667 32.7646 25.4537 33.1288 26.0538 33.0205C30.7465 31.4556 34.1209 27.0267 34.1209 21.8104C34.111 15.2852 28.8281 10 22.3055 10Z" fill="#F7FAFF"/>
</g>
<defs>
<clipPath id="clip0_1639_7300">
<rect width="24" height="24" fill="white" transform="translate(10.5 10)"/>
</clipPath>
</defs>
</svg>
