<svg width="14" height="17" viewBox="0 0 14 17" fill="none" xmlns="http://www.w3.org/2000/svg">
<path fill-rule="evenodd" clip-rule="evenodd" d="M6.37408 16.7094C6.53297 16.8942 6.76296 17 7.00757 17C7.25218 17 7.48216 16.8942 7.64106 16.7094C8.24109 16.0078 13.5076 9.77036 13.5076 6.45338C13.5076 2.89563 10.591 0 7.00757 0C3.42411 0 0.507568 2.89563 0.507568 6.45338C0.507568 9.77036 5.77405 16.0099 6.37408 16.7094ZM4.08483 6.4845C4.08483 8.08694 5.39569 9.38841 7.00762 9.38841C8.62164 9.38841 9.9325 8.08487 9.9325 6.4845C9.9325 4.88413 8.61955 3.58267 7.00762 3.58267C5.39569 3.58267 4.08483 4.88206 4.08483 6.4845Z" fill="#9A9A9A"/>
</svg>
