<svg width="15" height="16" viewBox="0 0 15 16" fill="none" xmlns="http://www.w3.org/2000/svg">
<path d="M14.7416 7.37752L10.3565 3.01087C10.0112 2.66695 9.44969 2.66695 9.10432 3.01087C8.75896 3.35479 8.75896 3.98937 9.10432 4.33551L11.9831 7.27768H4.73934C4.24915 7.27768 3.85254 7.67707 3.85254 8.16521C3.85254 8.65336 4.24915 9.05275 4.73934 9.05275H11.9608L9.10432 11.8196C8.75896 12.1635 8.75896 12.685 9.10432 13.0289C9.27812 13.202 9.50316 13.2685 9.73044 13.2685C9.95771 13.2685 10.185 13.1731 10.3565 13.0001L14.7416 8.62894C14.9087 8.46253 15 8.23622 15 8.00324C15 7.77027 14.9065 7.54171 14.7416 7.37752Z" fill="#ECF1F8"/>
<path d="M8.09046 15.9978H0.886805C0.396609 15.9978 0 15.6028 0 15.1147V0.883091C0 0.394948 0.396609 0 0.886805 0H8.09046C8.58066 0 8.97727 0.394948 8.97727 0.883091C8.97727 1.37123 8.58066 1.76621 8.09046 1.76621H1.77138V14.2338H8.09046C8.58066 14.2338 8.97727 14.6288 8.97727 15.1169C8.97727 15.6051 8.58066 16 8.09046 16V15.9978Z" fill="#ECF1F8"/>
</svg>
