<svg width="23" height="15" viewBox="0 0 23 15" fill="none" xmlns="http://www.w3.org/2000/svg">
<g clip-path="url(#clip0_718_6392)">
<path d="M9.82008 12.3642C7.89847 12.3435 5.9686 12.4206 4.08005 11.9606C-0.779759 10.7759 -0.726037 5.3954 1.28373 3.05641C2.07855 2.13073 3.17366 1.69131 4.34178 1.4902C8.0252 0.855172 11.7307 0.711912 15.4072 1.43234C18.614 2.06048 20.11 4.35952 19.7009 7.68894C19.3827 10.2786 17.8826 11.7553 15.2364 12.1011C13.4374 12.3352 11.6315 12.4096 9.82008 12.3642ZM10.5557 11.152C11.2499 11.1754 12.6026 11.1396 13.9471 10.9949C15.1014 10.8696 16.3232 10.8517 17.2448 10.0155C18.76 8.64216 18.6636 6.88999 18.2173 5.11715C17.917 3.92286 17.1002 3.18314 15.9169 2.83739C13.7749 2.21338 11.5778 2.21201 9.37928 2.26573C7.96597 2.30017 6.56643 2.46547 5.16001 2.65832C3.99602 2.81673 2.95326 3.07432 2.20252 3.93663C0.209284 6.22741 1.365 9.95079 4.29356 10.7277C6.12839 11.214 8.01969 11.1189 10.5543 11.152H10.5557Z" fill="#F9FBFE"/>
<path d="M22.6434 12.2525C22.6434 13.2705 21.8389 14.0584 20.8044 14.0501C19.7507 14.0419 18.9903 13.2567 18.9738 12.1602C18.9614 11.2951 19.9063 10.437 20.8527 10.4549C21.8279 10.4728 22.642 11.291 22.6434 12.2525ZM21.5703 12.3035C21.5552 11.9164 21.3926 11.5748 21.0042 11.5817C20.5964 11.5899 20.0592 11.6189 20.0537 12.2332C20.0482 12.7085 20.365 13.0087 20.8224 13.0129C21.2425 13.017 21.5345 12.7594 21.5703 12.3035Z" fill="#F9FBFE"/>
</g>
<defs>
<clipPath id="clip0_718_6392">
<rect width="22.6433" height="13.1" fill="white" transform="translate(0 0.950195)"/>
</clipPath>
</defs>
</svg>
