<svg width="14" height="14" viewBox="0 0 14 14" fill="none" xmlns="http://www.w3.org/2000/svg">
<path d="M12.3997 5.14667C11.193 5.14667 10.6997 4.29333 11.2997 3.24667C11.6463 2.64 11.4397 1.86667 10.833 1.52L9.67968 0.859998C9.15301 0.546665 8.47301 0.733332 8.15967 1.26L8.08634 1.38667C7.48634 2.43333 6.49967 2.43333 5.89301 1.38667L5.81967 1.26C5.51967 0.733332 4.83967 0.546665 4.31301 0.859998L3.15967 1.52C2.55301 1.86667 2.34634 2.64667 2.69301 3.25333C3.29967 4.29333 2.80634 5.14667 1.59967 5.14667C0.906341 5.14667 0.333008 5.71333 0.333008 6.41333V7.58667C0.333008 8.28 0.899675 8.85333 1.59967 8.85333C2.80634 8.85333 3.29967 9.70667 2.69301 10.7533C2.34634 11.36 2.55301 12.1333 3.15967 12.48L4.31301 13.14C4.83967 13.4533 5.51967 13.2667 5.83301 12.74L5.90634 12.6133C6.50634 11.5667 7.49301 11.5667 8.09967 12.6133L8.17301 12.74C8.48634 13.2667 9.16634 13.4533 9.69301 13.14L10.8463 12.48C11.453 12.1333 11.6597 11.3533 11.313 10.7533C10.7063 9.70667 11.1997 8.85333 12.4063 8.85333C13.0997 8.85333 13.673 8.28667 13.673 7.58667V6.41333C13.6663 5.72 13.0997 5.14667 12.3997 5.14667ZM6.99967 9.16667C5.80634 9.16667 4.83301 8.19333 4.83301 7C4.83301 5.80667 5.80634 4.83333 6.99967 4.83333C8.19301 4.83333 9.16634 5.80667 9.16634 7C9.16634 8.19333 8.19301 9.16667 6.99967 9.16667Z" fill="#ECF1F8"/>
</svg>
