<svg width="12" height="12" viewBox="0 0 12 12" fill="none" xmlns="http://www.w3.org/2000/svg">
<rect width="12" height="12" rx="6" fill="#A6C9FF"/>
<path d="M5.19434 7.83203V7.91992H6.33691V7.83203C6.34668 7.09961 6.58105 6.7627 7.14746 6.41602C7.78223 6.04004 8.17773 5.52246 8.18262 4.72656C8.17773 3.56445 7.27441 2.83203 5.95605 2.83203C4.75 2.83203 3.77344 3.50098 3.73926 4.81445H4.95996C4.99414 4.16016 5.46289 3.84766 5.94629 3.84766C6.47852 3.84766 6.9082 4.19922 6.90332 4.74609C6.9082 5.23438 6.58594 5.56152 6.1709 5.83008C5.55566 6.20605 5.2041 6.58691 5.19434 7.83203ZM5.03809 9.31641C5.0332 9.73633 5.37988 10.0781 5.7998 10.0781C6.20508 10.0781 6.55176 9.73633 6.55176 9.31641C6.55176 8.90625 6.20508 8.56934 5.7998 8.56445C5.37988 8.56934 5.0332 8.90625 5.03809 9.31641Z" fill="#ECF1F8"/>
</svg>
