<svg width="21" height="21" viewBox="0 0 21 21" fill="none" xmlns="http://www.w3.org/2000/svg">
<path d="M14.6562 3.115V1.75C14.6562 1.39125 14.3587 1.09375 14 1.09375C13.6412 1.09375 13.3437 1.39125 13.3437 1.75V3.0625H7.65621V1.75C7.65621 1.39125 7.35871 1.09375 6.99996 1.09375C6.64121 1.09375 6.34371 1.39125 6.34371 1.75V3.115C3.98121 3.33375 2.83496 4.7425 2.65996 6.83375C2.64246 7.0875 2.85246 7.2975 3.09746 7.2975H17.9025C18.1562 7.2975 18.3662 7.07875 18.34 6.83375C18.165 4.7425 17.0187 3.33375 14.6562 3.115Z" fill="white"/>
<path d="M17.5 8.60986H3.5C3.01875 8.60986 2.625 9.00361 2.625 9.48486V14.8749C2.625 17.4999 3.9375 19.2499 7 19.2499H14C17.0625 19.2499 18.375 17.4999 18.375 14.8749V9.48486C18.375 9.00361 17.9812 8.60986 17.5 8.60986ZM8.05875 15.9336C8.015 15.9686 7.97125 16.0124 7.9275 16.0386C7.875 16.0736 7.8225 16.0999 7.77 16.1174C7.7175 16.1436 7.665 16.1611 7.6125 16.1699C7.55125 16.1786 7.49875 16.1874 7.4375 16.1874C7.32375 16.1874 7.21 16.1611 7.105 16.1174C6.99125 16.0736 6.90375 16.0124 6.81625 15.9336C6.65875 15.7674 6.5625 15.5399 6.5625 15.3124C6.5625 15.0849 6.65875 14.8574 6.81625 14.6911C6.90375 14.6124 6.99125 14.5511 7.105 14.5074C7.2625 14.4374 7.4375 14.4199 7.6125 14.4549C7.665 14.4636 7.7175 14.4811 7.77 14.5074C7.8225 14.5249 7.875 14.5511 7.9275 14.5861C7.97125 14.6211 8.015 14.6561 8.05875 14.6911C8.21625 14.8574 8.3125 15.0849 8.3125 15.3124C8.3125 15.5399 8.21625 15.7674 8.05875 15.9336ZM8.05875 12.8711C7.8925 13.0286 7.665 13.1249 7.4375 13.1249C7.21 13.1249 6.9825 13.0286 6.81625 12.8711C6.65875 12.7049 6.5625 12.4774 6.5625 12.2499C6.5625 12.0224 6.65875 11.7949 6.81625 11.6286C7.06125 11.3836 7.44625 11.3049 7.77 11.4449C7.88375 11.4886 7.98 11.5499 8.05875 11.6286C8.21625 11.7949 8.3125 12.0224 8.3125 12.2499C8.3125 12.4774 8.21625 12.7049 8.05875 12.8711ZM11.1213 15.9336C10.955 16.0911 10.7275 16.1874 10.5 16.1874C10.2725 16.1874 10.045 16.0911 9.87875 15.9336C9.72125 15.7674 9.625 15.5399 9.625 15.3124C9.625 15.0849 9.72125 14.8574 9.87875 14.6911C10.2025 14.3674 10.7975 14.3674 11.1213 14.6911C11.2788 14.8574 11.375 15.0849 11.375 15.3124C11.375 15.5399 11.2788 15.7674 11.1213 15.9336ZM11.1213 12.8711C11.0775 12.9061 11.0338 12.9411 10.99 12.9761C10.9375 13.0111 10.885 13.0374 10.8325 13.0549C10.78 13.0811 10.7275 13.0986 10.675 13.1074C10.6137 13.1161 10.5613 13.1249 10.5 13.1249C10.2725 13.1249 10.045 13.0286 9.87875 12.8711C9.72125 12.7049 9.625 12.4774 9.625 12.2499C9.625 12.0224 9.72125 11.7949 9.87875 11.6286C9.9575 11.5499 10.0538 11.4886 10.1675 11.4449C10.4913 11.3049 10.8763 11.3836 11.1213 11.6286C11.2788 11.7949 11.375 12.0224 11.375 12.2499C11.375 12.4774 11.2788 12.7049 11.1213 12.8711ZM14.1837 15.9336C14.0175 16.0911 13.79 16.1874 13.5625 16.1874C13.335 16.1874 13.1075 16.0911 12.9412 15.9336C12.7837 15.7674 12.6875 15.5399 12.6875 15.3124C12.6875 15.0849 12.7837 14.8574 12.9412 14.6911C13.265 14.3674 13.86 14.3674 14.1837 14.6911C14.3412 14.8574 14.4375 15.0849 14.4375 15.3124C14.4375 15.5399 14.3412 15.7674 14.1837 15.9336ZM14.1837 12.8711C14.14 12.9061 14.0962 12.9411 14.0525 12.9761C14 13.0111 13.9475 13.0374 13.895 13.0549C13.8425 13.0811 13.79 13.0986 13.7375 13.1074C13.6762 13.1161 13.615 13.1249 13.5625 13.1249C13.335 13.1249 13.1075 13.0286 12.9412 12.8711C12.7837 12.7049 12.6875 12.4774 12.6875 12.2499C12.6875 12.0224 12.7837 11.7949 12.9412 11.6286C13.0288 11.5499 13.1163 11.4886 13.23 11.4449C13.3875 11.3749 13.5625 11.3574 13.7375 11.3924C13.79 11.4011 13.8425 11.4186 13.895 11.4449C13.9475 11.4624 14 11.4886 14.0525 11.5236C14.0962 11.5586 14.14 11.5936 14.1837 11.6286C14.3412 11.7949 14.4375 12.0224 14.4375 12.2499C14.4375 12.4774 14.3412 12.7049 14.1837 12.8711Z" fill="white"/>
</svg>
