<svg width="20" height="20" viewBox="0 0 20 20" fill="none" xmlns="http://www.w3.org/2000/svg">
<path d="M19.711 3.39447L16.6021 0.281247C16.2277 -0.093749 15.5642 -0.093749 15.1897 0.281247L5.17718 10.308C5.1621 10.3231 5.15455 10.3382 5.13947 10.3533C5.11686 10.381 5.09172 10.4061 5.07161 10.4363C5.05151 10.464 5.03644 10.4917 5.01885 10.5194C5.00377 10.5471 4.98867 10.5748 4.9736 10.605C4.95852 10.6377 4.94594 10.6729 4.93589 10.7082C4.93087 10.7258 4.92082 10.7434 4.9158 10.761L3.78486 15.0068C3.69187 15.3516 3.79241 15.719 4.04373 15.9707C4.23222 16.162 4.48855 16.2626 4.74992 16.2626C4.83537 16.2626 4.92333 16.2526 5.00627 16.2299L9.24602 15.0974C9.26361 15.0923 9.28123 15.0823 9.29882 15.0772C9.334 15.0672 9.36665 15.0546 9.40184 15.0395C9.432 15.0269 9.45966 15.0118 9.48731 14.9942C9.51496 14.9791 9.54259 14.9615 9.56772 14.9438C9.59788 14.9212 9.62551 14.8985 9.65316 14.8734C9.66824 14.8608 9.68333 14.8507 9.69589 14.8381L19.7084 4.8114C19.8969 4.62264 20 4.36845 20 4.10419C20 3.83994 19.8944 3.58323 19.7084 3.39699L19.711 3.39447ZM6.7806 11.5311L13.3526 4.94982L15.049 6.64863L8.477 13.2299L6.16485 13.8465L6.7806 11.5311ZM16.4614 5.2317L14.765 3.53289L15.896 2.40036L17.5924 4.09916L16.4614 5.2317Z" fill="white"/>
<path d="M16.4966 20.0001H0.909774C0.356872 20.0001 0 19.4615 0 18.9103V3.30143C0 2.74774 0.356872 2.38281 0.909774 2.38281H7.50439C8.05729 2.38281 8.50463 2.83583 8.50463 3.38951C8.50463 3.9432 8.05729 4.39621 7.50439 4.39621H2.01055V17.9867H15.5818V12.3064C15.5818 11.7527 16.0342 11.3047 16.5871 11.3047C17.14 11.3047 17.5923 11.7527 17.5923 12.3064V18.9103C17.5923 19.464 17.047 20.0001 16.4941 20.0001H16.4966Z" fill="white"/>
</svg>
