<svg width="17" height="16" viewBox="0 0 17 16" fill="none" xmlns="http://www.w3.org/2000/svg">
<path fill-rule="evenodd" clip-rule="evenodd" d="M15.0906 1.49852C14.1811 0.532627 12.9731 0 11.6875 0C10.4019 0 9.19394 0.532627 8.28506 1.49779C8.27337 1.51021 8.26169 1.52263 8.25 1.53578C8.23831 1.52263 8.22731 1.51094 8.21562 1.49852C7.30606 0.532627 6.09812 0 4.8125 0C3.52688 0 2.31894 0.532627 1.40937 1.49852C0.499812 2.4644 0 3.74812 0 5.11439C0 6.48066 0.5005 7.76437 1.40937 8.73026L8.25 16L15.0906 8.73026C15.9995 7.76437 16.5 6.48066 16.5 5.11439C16.5 3.74885 15.9995 2.4644 15.0906 1.49852Z" fill="#ECF1F8"/>
</svg>
