<svg width="16" height="21" viewBox="0 0 16 21" fill="none" xmlns="http://www.w3.org/2000/svg">
<path fill-rule="evenodd" clip-rule="evenodd" d="M7.22032 20.641C7.41588 20.8693 7.69894 21 8 21C8.30106 21 8.58412 20.8693 8.77968 20.641C9.51818 19.7744 16 12.0693 16 7.97183C16 3.57695 12.4104 0 8 0C3.58959 0 0 3.57695 0 7.97183C0 12.0693 6.48182 19.7769 7.22032 20.641ZM4.40278 8.01026C4.40278 9.98975 6.01615 11.5974 8.00006 11.5974C9.98655 11.5974 11.5999 9.98719 11.5999 8.01026C11.5999 6.03334 9.98397 4.42565 8.00006 4.42565C6.01615 4.42565 4.40278 6.03077 4.40278 8.01026Z" fill="#74A0E3"/>
</svg>
