<svg width="16" height="17" viewBox="0 0 16 17" fill="none" xmlns="http://www.w3.org/2000/svg">
<path fill-rule="evenodd" clip-rule="evenodd" d="M0 2.5C0 1.39543 0.895431 0.5 2 0.5H14C15.1045 0.5 16 1.39543 16 2.5V14.5C16 15.6045 15.1045 16.5 14 16.5H2C0.895431 16.5 0 15.6045 0 14.5V2.5ZM2 1.83333C1.63181 1.83333 1.33333 2.13181 1.33333 2.5V14.5C1.33333 14.8682 1.63181 15.1667 2 15.1667H14C14.3682 15.1667 14.6667 14.8682 14.6667 14.5V2.5C14.6667 2.13181 14.3682 1.83333 14 1.83333H2ZM3.63636 5.59091C3.63636 5.18925 3.96197 4.86364 4.36364 4.86364H11.6364C12.038 4.86364 12.3636 5.18925 12.3636 5.59091C12.3636 5.99257 12.038 6.31818 11.6364 6.31818H4.36364C3.96198 6.31818 3.63636 5.99257 3.63636 5.59091ZM4.36364 9.95455C3.96197 9.95455 3.63636 10.2802 3.63636 10.6818C3.63636 11.0835 3.96198 11.4091 4.36364 11.4091H11.6364C12.038 11.4091 12.3636 11.0835 12.3636 10.6818C12.3636 10.2802 12.038 9.95455 11.6364 9.95455H4.36364Z" fill="#74A0E3"/>
</svg>
