<svg width="45" height="44" viewBox="0 0 45 44" fill="none" xmlns="http://www.w3.org/2000/svg">
<g clip-path="url(#clip0_1639_7304)">
<path fill-rule="evenodd" clip-rule="evenodd" d="M14.6385 13.3624C15.4167 13.9912 15.7086 13.9432 17.1698 13.8462L30.9455 13.0236C31.2376 13.0236 30.9947 12.7337 30.8972 12.6855L28.6094 11.0406C28.171 10.7022 27.587 10.3145 26.4676 10.4115L13.1287 11.3791C12.6422 11.4271 12.545 11.669 12.7388 11.8629L14.6385 13.3624ZM15.4656 16.5554V30.9709C15.4656 31.7457 15.8549 32.0355 16.731 31.9876L31.8705 31.1163C32.7471 31.0684 32.8448 30.5355 32.8448 29.9062V15.5873C32.8448 14.9589 32.6017 14.6202 32.0652 14.6685L16.2443 15.5873C15.6604 15.6361 15.4656 15.9266 15.4656 16.5553V16.5554ZM30.4113 17.3287C30.5083 17.7645 30.4113 18.1998 29.9722 18.2489L29.2428 18.3934V29.0359C28.6095 29.3744 28.0254 29.568 27.5388 29.568C26.7596 29.568 26.5644 29.3259 25.9808 28.6008L21.2094 21.1509V28.3588L22.7192 28.6976C22.7192 28.6976 22.7192 29.568 21.5011 29.568L18.1429 29.7618C18.0454 29.568 18.1429 29.0847 18.4835 28.9879L19.3599 28.7462V19.2161L18.1431 19.1191C18.0456 18.6834 18.2886 18.055 18.9706 18.0062L22.5732 17.7647L27.5388 25.3114V18.6353L26.2727 18.4909C26.1756 17.9581 26.5644 17.5713 27.0513 17.5233L30.4113 17.3288V17.3287ZM12.0087 10.073L25.8834 9.05676C27.5873 8.9114 28.0256 9.00874 29.0966 9.78248L33.5257 12.8784C34.2565 13.4109 34.5001 13.5557 34.5001 14.1361V31.1163C34.5001 32.1804 34.1103 32.8098 32.7475 32.9062L16.6348 33.8739C15.6118 33.9224 15.1249 33.7774 14.5891 33.0997L11.3275 28.891C10.743 28.1163 10.5 27.5367 10.5 26.8586V11.7655C10.5 10.8953 10.8899 10.1693 12.0087 10.073Z" fill="white"/>
</g>
<defs>
<clipPath id="clip0_1639_7304">
<rect width="24" height="24.8824" fill="white" transform="translate(10.5 9)"/>
</clipPath>
</defs>
</svg>
